<svg id="Layer_1" data-name="Layer 1" xmlns="http://www.w3.org/2000/svg" viewBox="0 0 200 72"><defs><style>.cls-1{fill:#d42027;}</style></defs><path class="cls-1" d="M91,47.47H86.65V37.52H71.08v9.95H66.73V24.19h4.35v9.69H86.65V24.19H91Z"/><path class="cls-1" d="M174.81,41.14v.53c0,1.41.63,2.09,2.13,2.09h10.55c2.51,0,3-.49,3-2.59v-1.8c0-2.09-.48-1.8-3-1.8H176.41c-3.79,0-5.53-1.74-5.53-5.42V29.63c0-3.68,1.74-5.42,5.53-5.42h12.33c4.1,0,5.64,1.52,5.64,5.52v.75h-4.24V30c0-1.41-.62-2.08-2.17-2.08h-9.74c-2.48,0-3,.53-3,2.58v.78c0,2.09.52,2.62,3,2.62H189.3c3.8,0,5.58,1.74,5.58,5.42V42c0,3.68-1.77,5.42-5.58,5.42H176.22c-4.12,0-5.68-1.48-5.68-5.52v-.78h4.27Z"/><path class="cls-1" d="M113.21,47.43h4.4v-8.6l10.78-14.6h-5l-7.87,11.13L107.6,24.23h-5.17l10.78,14.64Z"/><path class="cls-1" d="M149.85,24.23h-6.3L132.9,47.43h4.52l9.18-20.55,5.58,12.45h-6.82L143.76,43h10.08l2,4.41h4.7Z"/><path class="cls-1" d="M7.94,52.3v-35h10.2V30.6h7l2.92-3h-7V14.3H5V59.46L44.46,19.38V54.3H34.09V41.06H27.27l-2.93,3h6.82V57.27H47.38V12.2Z"/></svg>
