<?xml version="1.0" encoding="UTF-8"?><svg id="Layer_1" xmlns="http://www.w3.org/2000/svg" viewBox="0 0 200 72"><defs><style>.cls-1{fill:#fff;}</style></defs><path class="cls-1" d="M91.01,47.47h-4.36v-9.95h-15.56v9.95h-4.36V24.19h4.36v9.69h15.56v-9.69h4.36v23.29Z"/><path class="cls-1" d="M174.81,41.14v.53c0,1.41,.62,2.09,2.12,2.09h10.56c2.5,0,3-.49,3-2.59v-1.8c0-2.09-.48-1.8-3-1.8h-11.08c-3.79,0-5.53-1.74-5.53-5.42v-2.52c0-3.68,1.74-5.42,5.53-5.42h12.32c4.1,0,5.65,1.52,5.65,5.52v.75h-4.24v-.49c0-1.41-.62-2.09-2.16-2.09h-9.75c-2.48,0-3,.53-3,2.59v.78c0,2.09,.52,2.62,3,2.62h11.08c3.79,0,5.57,1.74,5.57,5.42v2.72c0,3.68-1.77,5.42-5.57,5.42h-13.09c-4.12,0-5.67-1.48-5.67-5.52v-.78h4.27Z"/><path class="cls-1" d="M113.21,47.43h4.4v-8.6l10.78-14.6h-5.05l-7.87,11.13-7.87-11.13h-5.18l10.78,14.64v8.56Z"/><path class="cls-1" d="M149.85,24.23h-6.31l-10.64,23.2h4.51l9.18-20.55,5.57,12.46h-6.82l-1.6,3.68h10.09l1.97,4.42h4.7l-10.66-23.2Z"/><path class="cls-1" d="M7.94,52.3V17.28h10.2v13.33h6.99l2.92-2.97h-6.99V14.3H5.02V59.46L44.46,19.38V54.3h-10.37v-13.24h-6.81l-2.93,2.97h6.81v13.25h16.22V12.2L7.94,52.3Z"/></svg>
