<?xml version="1.0" encoding="UTF-8"?><svg id="Layer_1" xmlns="http://www.w3.org/2000/svg" viewBox="0 0 200 48"><defs><style>.cls-1{fill:#d42027;}</style></defs><path class="cls-1" d="M90.39,36.22h-4.46v-10.2h-15.94v10.2h-4.46V12.37h4.46v9.93h15.94V12.37h4.46v23.86Z"/><path class="cls-1" d="M176.24,29.73v.55c0,1.44,.64,2.14,2.17,2.14h10.81c2.57,0,3.07-.5,3.07-2.65v-1.84c0-2.14-.49-1.84-3.07-1.84h-11.35c-3.88,0-5.67-1.78-5.67-5.56v-2.58c0-3.77,1.78-5.56,5.67-5.56h12.63c4.2,0,5.78,1.56,5.78,5.66v.77h-4.35v-.5c0-1.44-.64-2.14-2.22-2.14h-9.99c-2.54,0-3.07,.55-3.07,2.65v.8c0,2.14,.54,2.68,3.07,2.68h11.35c3.89,0,5.71,1.78,5.71,5.56v2.78c0,3.77-1.81,5.56-5.71,5.56h-13.41c-4.22,0-5.81-1.52-5.81-5.66v-.8h4.38Z"/><path class="cls-1" d="M113.13,36.18h4.51v-8.81l11.05-14.96h-5.17l-8.06,11.41-8.06-11.41h-5.31l11.05,15v8.77Z"/><path class="cls-1" d="M150.67,12.41h-6.46l-10.9,23.77h4.62l9.41-21.06,5.71,12.76h-6.99l-1.64,3.77h10.33l2.02,4.52h4.81l-10.92-23.77Z"/><path class="cls-1" d="M5.29,41.16V5.29H15.73v13.65h7.17l2.99-3.04h-7.17V2.24H2.3V48.5L42.7,7.44V43.21h-10.62v-13.56h-6.98l-3,3.04h6.98v13.57h16.61V.09L5.29,41.16Z"/></svg>
